<?xml version="1.0" encoding="utf-8"?>
<!-- Generator: Adobe Illustrator 23.0.3, SVG Export Plug-In . SVG Version: 6.00 Build 0)  -->
<svg version="1.1" id="discord" xmlns="http://www.w3.org/2000/svg" xmlns:xlink="http://www.w3.org/1999/xlink" x="0px" y="0px"
	 viewBox="0 0 18 21" style="enable-background:new 0 0 18 21;" xml:space="preserve">
<path d="M7.14,8.63c-0.59,0-1.05,0.51-1.05,1.14c0,0.63,0.47,1.14,1.05,1.14c0.59,0,1.05-0.51,1.05-1.14
	C8.2,9.14,7.72,8.63,7.14,8.63z M10.89,8.63c-0.59,0-1.05,0.51-1.05,1.14c0,0.63,0.47,1.14,1.05,1.14c0.59,0,1.05-0.51,1.05-1.14
	C11.94,9.14,11.48,8.63,10.89,8.63z"/>
<path d="M15.89,0H2.11C0.95,0,0,0.94,0,2.1v13.8C0,17.06,0.95,18,2.11,18h11.66l-0.55-1.89l1.32,1.21l1.24,1.14L18,20.41V2.1
	C18,0.94,17.05,0,15.89,0z M11.92,13.43c0,0-0.37-0.44-0.68-0.83c1.35-0.38,1.86-1.22,1.86-1.22c-0.42,0.28-0.82,0.47-1.18,0.61
	c-0.51,0.22-1.01,0.36-1.49,0.44c-0.99,0.19-1.89,0.13-2.66-0.01c-0.59-0.11-1.09-0.28-1.51-0.44c-0.24-0.09-0.49-0.21-0.75-0.35
	c-0.03-0.02-0.06-0.03-0.09-0.05c-0.02-0.01-0.03-0.02-0.04-0.03c-0.19-0.1-0.29-0.17-0.29-0.17s0.49,0.82,1.8,1.21
	c-0.31,0.39-0.69,0.85-0.69,0.85c-2.27-0.07-3.14-1.56-3.14-1.56c0-3.31,1.48-6,1.48-6c1.48-1.11,2.89-1.08,2.89-1.08l0.1,0.12
	C5.68,5.45,4.82,6.26,4.82,6.26s0.23-0.12,0.61-0.3c1.1-0.48,1.97-0.62,2.33-0.65C7.83,5.31,7.88,5.3,7.94,5.3
	c0.63-0.08,1.34-0.1,2.08-0.02c0.98,0.11,2.03,0.4,3.1,0.99c0,0-0.81-0.77-2.56-1.31l0.14-0.16c0,0,1.41-0.03,2.89,1.08
	c0,0,1.48,2.68,1.48,6C15.07,11.87,14.19,13.36,11.92,13.43z"/>
</svg>
