<?xml version="1.0" encoding="utf-8"?>
<!-- Generator: Adobe Illustrator 23.0.3, SVG Export Plug-In . SVG Version: 6.00 Build 0)  -->
<svg version="1.1" id="Layer_1" xmlns="http://www.w3.org/2000/svg" xmlns:xlink="http://www.w3.org/1999/xlink" x="0px" y="0px"
	 viewBox="0 0 20 20" style="enable-background:new 0 0 20 20;" xml:space="preserve">
<g>
	<path d="M10,1.78c2.68,0,3,0.01,4.05,0.06c0.98,0.04,1.51,0.21,1.86,0.35c0.47,0.18,0.8,0.4,1.15,0.75
		c0.35,0.35,0.57,0.69,0.75,1.15c0.14,0.35,0.3,0.88,0.35,1.86C18.21,7,18.22,7.32,18.22,10c0,2.68-0.01,3-0.06,4.05
		c-0.04,0.98-0.21,1.51-0.35,1.86c-0.18,0.47-0.4,0.8-0.75,1.15c-0.35,0.35-0.69,0.57-1.15,0.75c-0.35,0.14-0.88,0.3-1.86,0.35
		C13,18.21,12.68,18.22,10,18.22c-2.68,0-3-0.01-4.05-0.06c-0.98-0.04-1.51-0.21-1.86-0.35c-0.47-0.18-0.8-0.4-1.15-0.75
		c-0.35-0.35-0.57-0.69-0.75-1.15c-0.14-0.35-0.3-0.88-0.35-1.86C1.79,13,1.78,12.68,1.78,10c0-2.68,0.01-3,0.06-4.05
		c0.04-0.98,0.21-1.51,0.35-1.86c0.18-0.47,0.4-0.8,0.75-1.15c0.35-0.35,0.69-0.57,1.15-0.75c0.35-0.14,0.88-0.3,1.86-0.35
		C7,1.79,7.32,1.78,10,1.78 M10-0.02C7.28-0.02,6.94,0,5.87,0.04C4.8,0.09,4.08,0.26,3.44,0.51c-0.66,0.26-1.22,0.6-1.77,1.16
		c-0.56,0.56-0.9,1.12-1.16,1.77C0.26,4.08,0.09,4.8,0.04,5.87C0,6.94-0.02,7.28-0.02,10S0,13.06,0.04,14.13
		c0.05,1.07,0.22,1.79,0.47,2.43c0.26,0.66,0.6,1.22,1.16,1.77c0.56,0.56,1.12,0.9,1.77,1.16c0.64,0.25,1.37,0.42,2.43,0.47
		C6.94,20,7.28,20.02,10,20.02c2.72,0,3.06-0.01,4.13-0.06c1.07-0.05,1.79-0.22,2.43-0.47c0.66-0.26,1.22-0.6,1.77-1.16
		c0.56-0.56,0.9-1.12,1.16-1.77c0.25-0.64,0.42-1.37,0.47-2.43c0.05-1.07,0.06-1.41,0.06-4.13S20,6.94,19.96,5.87
		c-0.05-1.07-0.22-1.79-0.47-2.43c-0.26-0.66-0.6-1.22-1.16-1.77c-0.56-0.56-1.12-0.9-1.77-1.16c-0.64-0.25-1.37-0.42-2.43-0.47
		C13.06,0,12.72-0.02,10-0.02L10-0.02z"/>
	<path d="M10,4.86c-2.84,0-5.14,2.3-5.14,5.14s2.3,5.14,5.14,5.14s5.14-2.3,5.14-5.14S12.84,4.86,10,4.86z M10,13.35
		c-1.85,0-3.35-1.5-3.35-3.35c0-1.85,1.5-3.35,3.35-3.35c1.85,0,3.35,1.5,3.35,3.35C13.35,11.85,11.85,13.35,10,13.35z"/>
	<path d="M16.54,4.66c0,0.66-0.54,1.2-1.2,1.2c-0.66,0-1.2-0.54-1.2-1.2c0-0.66,0.54-1.2,1.2-1.2C16,3.46,16.54,4,16.54,4.66z"/>
</g>
</svg>
