<?xml version="1.0" encoding="utf-8"?>
<!-- Generator: Adobe Illustrator 23.0.3, SVG Export Plug-In . SVG Version: 6.00 Build 0)  -->
<svg version="1.1" id="Layer_1" xmlns="http://www.w3.org/2000/svg" xmlns:xlink="http://www.w3.org/1999/xlink" x="0px" y="0px"
	 viewBox="0 0 48 48" style="enable-background:new 0 0 48 48;" xml:space="preserve">
<g>
	<path d="M24,4c11.03,0,20,8.97,20,20s-8.97,20-20,20S4,35.03,4,24S12.97,4,24,4 M24,0C10.75,0,0,10.75,0,24s10.75,24,24,24
		s24-10.75,24-24S37.25,0,24,0L24,0z"/>
</g>
<g>
	<g>
		<circle cx="24" cy="16" r="2"/>
	</g>
	<g>
		<path d="M24,34L24,34c-1.1,0-2-0.9-2-2v-9c0-1.1,0.9-2,2-2h0c1.1,0,2,0.9,2,2v9C26,33.1,25.1,34,24,34z"/>
	</g>
</g>
</svg>
