<?xml version="1.0" encoding="utf-8"?>
<!-- Generator: Adobe Illustrator 23.0.3, SVG Export Plug-In . SVG Version: 6.00 Build 0)  -->
<svg version="1.1" id="twitter" xmlns="http://www.w3.org/2000/svg" xmlns:xlink="http://www.w3.org/1999/xlink" x="0px" y="0px"
	 viewBox="0 0 22 18" style="enable-background:new 0 0 22 18;" xml:space="preserve">
<path d="M7.04,17.94c8.3,0,12.84-6.88,12.84-12.84c0-0.2,0-0.39-0.01-0.58c0.88-0.64,1.65-1.43,2.25-2.34
	c-0.82,0.37-1.7,0.6-2.59,0.71c0.94-0.56,1.65-1.45,1.98-2.5c-0.89,0.53-1.86,0.9-2.87,1.1c-1.71-1.82-4.57-1.91-6.39-0.2
	c-1.17,1.1-1.67,2.75-1.31,4.31c-3.63-0.18-7.01-1.9-9.3-4.72c-1.2,2.06-0.59,4.7,1.4,6.03C2.33,6.89,1.63,6.7,1,6.35
	C1,6.36,1,6.38,1,6.4c0,2.15,1.52,4,3.62,4.42c-0.66,0.18-1.36,0.21-2.04,0.08c0.59,1.84,2.29,3.1,4.22,3.13
	c-1.6,1.26-3.57,1.94-5.61,1.94c-0.36,0-0.72-0.02-1.07-0.07C2.18,17.24,4.59,17.94,7.04,17.94"/>
</svg>
