<?xml version="1.0" encoding="utf-8"?>
<!-- Generator: Adobe Illustrator 23.0.3, SVG Export Plug-In . SVG Version: 6.00 Build 0)  -->
<svg version="1.1" id="Layer_1" xmlns="http://www.w3.org/2000/svg" xmlns:xlink="http://www.w3.org/1999/xlink" x="0px" y="0px"
	 viewBox="0 0 20 14" style="enable-background:new 0 0 20 14;" xml:space="preserve">
<path d="M19.52,2.19c-0.23-0.86-0.9-1.54-1.76-1.77C16.21,0,10,0,10,0S3.79,0,2.24,0.42C1.38,0.65,0.71,1.33,0.48,2.19
	C0.06,3.75,0.06,7,0.06,7s0,3.25,0.42,4.81c0.23,0.86,0.9,1.54,1.76,1.77C3.79,14,10,14,10,14s6.21,0,7.76-0.42
	c0.85-0.23,1.53-0.91,1.76-1.77C19.94,10.25,19.94,7,19.94,7S19.94,3.75,19.52,2.19z M8,9.95V4.05L13.19,7L8,9.95z"/>
</svg>
