<?xml version="1.0" encoding="utf-8"?>
<!-- Generator: Adobe Illustrator 23.0.3, SVG Export Plug-In . SVG Version: 6.00 Build 0)  -->
<svg version="1.1" id="Layer_1" xmlns="http://www.w3.org/2000/svg" xmlns:xlink="http://www.w3.org/1999/xlink" x="0px" y="0px"
	 viewBox="0 0 24 27" style="enable-background:new 0 0 24 27;" xml:space="preserve">
<style type="text/css">
	.st0{fill:#0C1732;}
	.st1{fill:#F04F6E;}
</style>
<g>
	<path class="st0" d="M12,0.23c-6.63,0-12,5.37-12,12c0,4.12,2.07,7.75,5.23,9.91L12,26.77l6.77-4.62c3.16-2.16,5.23-5.79,5.23-9.91
		C24,5.61,18.63,0.23,12,0.23z M16.79,19.25L12,22.53l-4.8-3.27c-2.24-1.53-3.72-4.11-3.72-7.03c0-4.69,3.81-8.5,8.5-8.5
		s8.5,3.81,8.5,8.5C20.49,15.15,19.02,17.72,16.79,19.25z"/>
	<path class="st1" d="M0.9,7.67c-0.47,1.15-0.77,2.39-0.87,3.69l8.71,5.92l5-3.4l7.96,5.41c0.7-0.95,1.25-2.02,1.64-3.15l-6.49-4.38
		l6.19-4.21c-0.46-1.09-1.08-2.1-1.83-3L8.77,13.02L0.9,7.67z"/>
</g>
</svg>
