<?xml version="1.0" encoding="utf-8"?>
<!-- Generator: Adobe Illustrator 23.0.3, SVG Export Plug-In . SVG Version: 6.00 Build 0)  -->
<svg version="1.1" xmlns="http://www.w3.org/2000/svg" xmlns:xlink="http://www.w3.org/1999/xlink" x="0px" y="0px"
	 viewBox="0 0 80 118" style="enable-background:new 0 0 80 118;" xml:space="preserve">
<g id="logo">
	<path d="M78.69,67.81c-1.04-0.26-2.09-0.54-3.1-0.83c-10.3-2.99-18.15-7.52-24.12-12.81c0.62-0.92,1.06-1.79,1.33-2.63
		c2,1.72,4.19,3.28,6.57,4.66c-0.06,0.28-0.13,0.55-0.2,0.8c-0.28,0.91,0.22,1.87,1.12,2.16c0.91,0.28,1.87-0.22,2.16-1.12
		c0.02-0.05,0.03-0.11,0.05-0.16c3.93,1.92,8.3,3.42,13.09,4.5c0.13,0.03,0.25,0.04,0.38,0.04c0.79,0,1.5-0.54,1.68-1.34
		c0.21-0.93-0.37-1.85-1.3-2.05c-4.94-1.11-9.38-2.68-13.29-4.69c0.5-9.83-5.42-18.9-15.06-21.43c-1.33-0.35-2.66-0.58-4-0.69
		c-1.29-3.96-2-8.12-2.12-12.28c5.61,5.76,13.06,10.25,21.32,10.09c0.03,0,0.06,0,0.08,0c1.14,4.14,2.32,10.71,2.5,20.38
		c0.01,0.72,0.48,1.36,1.16,1.59c0.18,0.06,0.37,0.09,0.56,0.09c0.51,0,1-0.23,1.34-0.64c4.65-5.75,9.21-13.51,9.29-21.1
		c0.1-9.87-8.84-13.64-17.32-10.72c-0.55,0.19-0.98,0.63-1.12,1.19c-0.14,0.56-0.01,1.14,0.38,1.56c0.08,0.11,1.02,1.32,2.11,4.19
		c-8.39-0.26-15.46-5.87-20.55-12.1c-0.92-1.13-2.86-0.59-3.04,0.88c-0.01,0.1-0.3,2.45-0.08,6.09c0.16,2.68,0.63,6.52,1.89,10.75
		c-0.29,0.02-0.59,0.05-0.88,0.09c-0.86,0.1-1.71,0.26-2.55,0.46c-2.6-6.98-3.62-13.73-3.95-19.07c-0.1-1.55-0.08-2.45-0.08-2.46
		c0.02-0.95-0.74-1.73-1.69-1.75c-0.92-0.02-1.73,0.77-1.75,1.69c0,0.04-0.02,1.03,0.09,2.74c0.42,6.79,1.74,13.53,4.1,19.92
		c-8.6,3.53-15.57,12.93-13.63,22.52c0.39,1.95,1.15,3.79,2.26,5.48c3.23,4.94,8.92,7.94,14.62,8.97
		c5.94,1.07,12.52,0.27,17.82-2.71c2-1.13,3.62-2.51,4.75-4.03c1.75,0.99,3.56,1.89,5.39,2.71C47.26,83.17,18.01,77.72,7.23,56.32
		C-2.84,36.32,7.99,11.3,29.4,4.83c13.2-3.98,27.81-0.05,37.25,9.99c0.83,0.88,2.34,0.61,2.83-0.48c0.62-1.4-0.87-2.47-1.73-3.3
		c-2.41-2.32-5.11-4.34-8.02-5.99c-5.72-3.25-12.2-5.03-18.78-5.2C28.15-0.47,15.79,5.52,8.04,15.69
		C-8.29,37.12,1.7,69.33,27.18,77.88c14.32,4.81,30.5,0.99,41.17-9.71c2.03,0.78,4.13,1.49,6.29,2.11c1.06,0.31,2.15,0.6,3.24,0.87
		c0.14,0.03,0.28,0.05,0.41,0.05c0.77,0,1.48-0.52,1.67-1.31C80.18,68.97,79.61,68.04,78.69,67.81z M73.75,25.84
		c3.11,6.11-1.47,14.28-4.73,19.37c-0.31-5.23-0.94-10.49-2.28-15.57c1.26-0.24,3.37-0.44,3.77-1.9c0.34-1.27-0.88-2.51-2.19-2.06
		c-0.65,0.22-1.52,0.47-2.58,0.65c-0.61-1.76-1.21-3.08-1.72-4.05C67.32,21.55,71.6,21.62,73.75,25.84z M48.93,48.08
		c0.57,0.65,1.31,1.51,0,3.68c-1.61-1.63-3.06-3.32-4.37-5.05c0.2-0.06,0.42-0.11,0.65-0.15C46.63,46.34,47.85,46.84,48.93,48.08z
		 M57.3,43.95c1.52,2.75,2.05,5.52,2.24,7.36c0.04,0.35,0.06,0.7,0.08,1.05c-6.45-4.09-11.21-9.61-14.24-16.52
		C50.39,36.7,54.82,39.45,57.3,43.95z M41.55,35.56c0.83,2.12,1.81,4.15,2.94,6.06c-0.05,0.07-0.1,0.14-0.14,0.22
		c-0.01,0.01-0.58,1.01-1.86,1.92c-1.68-2.57-3.07-5.19-4.23-7.81C39.32,35.73,40.42,35.59,41.55,35.56z M46.61,67.34
		c-8.35,1.58-19.7-1.26-22.79-10.2c-2.87-8.31,3.68-17.09,11.14-20.17c4.52,10.39,12.01,19.19,21.56,25.28
		C54.62,64.61,50.92,66.52,46.61,67.34z"/>
	<path d="M38.03,47.33c-2.92-3.08-7.2-1.46-8.85,1.96c-1.45,2.98-1.64,6.73-1.42,10c0.06,0.91,0.82,1.61,1.71,1.61
		c0.04,0,0.08,0,0.11,0c0.95-0.06,1.66-0.88,1.6-1.83c0-0.02-0.12-1.82,0.09-3.95c0.13-1.41,1.43-8.39,4.27-5.41
		c2.07,2.18,2.06,6.61,1.93,9.39c-0.05,0.95,0.68,1.76,1.63,1.8c0.95,0.05,1.76-0.68,1.81-1.63C41.1,55.45,40.83,50.28,38.03,47.33z
		"/>
	<path d="M19.25,32.62c-0.76,0-2.23-0.17-3.6-1.33c-0.73-0.61-1.81-0.52-2.42,0.2c-1.91,2.26,2.6,4.02,4.14,4.36
		c2.16,0.47,4.66,0.19,6.45-1.18c2.59-1.97,2.57-5.66-0.16-7.49c-1.53-1.03-3.27-1.16-5.01-1.59c-0.56-0.14-2.02-0.36-2.13-1.12
		c-0.32-2.39,4.63-1.58,5.61-0.49c0.63,0.71,1.72,0.76,2.43,0.13c2.21-1.99-1.86-4.07-3.35-4.43c-2.16-0.52-4.75-0.25-6.49,1.23
		c-3.34,2.84-1.15,6.78,2.37,7.83c1.13,0.34,4.65,0.35,5.15,1.77C22.8,32.12,20.33,32.62,19.25,32.62z"/>
</g>
<g id="typo_1_">
	<g id="nyong">
		<path d="M-0.1,88.01h3.46l6.94,10.4v-10.4h3.58v16.02h-3.29L3.48,93.44v10.59H-0.1V88.01z"/>
		<path d="M20.92,97.33l-5.62-9.32h4.11l3.48,6.05l3.39-6.05h3.94L24.6,97.3v6.72h-3.67V97.33z"/>
		<path d="M38.03,104.44c-1.18,0-2.29-0.22-3.3-0.65c-1.02-0.43-1.9-1.02-2.64-1.78c-0.74-0.75-1.33-1.64-1.75-2.68
			c-0.86-2.09-0.86-4.58,0-6.66c0.42-1.02,1.01-1.91,1.75-2.67c0.74-0.75,1.62-1.34,2.64-1.78c2.06-0.88,4.54-0.88,6.6,0
			c1.02,0.43,1.9,1.02,2.64,1.78c0.74,0.75,1.33,1.64,1.75,2.67c0.86,2.09,0.86,4.57,0,6.66c-0.42,1.03-1.01,1.93-1.75,2.68
			c-0.74,0.75-1.62,1.34-2.64,1.78C40.31,104.22,39.21,104.44,38.03,104.44z M38.03,101.03c0.7,0,1.34-0.14,1.9-0.41
			c0.56-0.27,1.04-0.64,1.43-1.1c0.39-0.46,0.69-1,0.9-1.61c0.42-1.24,0.42-2.65,0-3.89c-0.21-0.61-0.51-1.14-0.9-1.6
			c-0.39-0.46-0.87-0.82-1.43-1.08c-1.15-0.54-2.65-0.54-3.81,0c-0.57,0.26-1.05,0.62-1.44,1.08c-0.39,0.46-0.69,0.99-0.9,1.6
			c-0.42,1.24-0.42,2.65,0,3.89c0.21,0.61,0.51,1.14,0.9,1.61c0.39,0.46,0.87,0.83,1.44,1.1C36.69,100.89,37.32,101.03,38.03,101.03
			z"/>
		<path d="M48.61,88.01h3.46l6.94,10.4v-10.4h3.58v16.02h-3.29l-7.11-10.59v10.59h-3.58V88.01z"/>
		<path d="M73.83,95.22H80v6.94c-0.83,0.72-1.81,1.28-2.92,1.67c-2.27,0.8-5.07,0.87-7.32-0.02c-1.03-0.41-1.91-0.98-2.63-1.72
			c-0.72-0.74-1.27-1.62-1.64-2.64c-0.78-2.11-0.78-4.62,0.04-6.72c0.79-2.01,2.34-3.62,4.32-4.47c2.2-0.94,5.03-0.9,7.19,0.16
			c1.1,0.54,2,1.28,2.73,2.25l-2.45,2.33c-0.51-0.61-1.08-1.1-1.69-1.49c-1.2-0.75-2.97-0.77-4.24-0.17
			c-0.58,0.27-1.06,0.64-1.46,1.1c-0.4,0.46-0.7,1.01-0.91,1.63c-0.43,1.28-0.44,2.81,0.05,4.08c0.24,0.62,0.58,1.16,1.01,1.6
			c0.43,0.44,0.94,0.78,1.52,1.02c1.14,0.47,2.49,0.47,3.66,0.13c0.53-0.15,1-0.4,1.42-0.73v-2.02h-2.83V95.22z"/>
	</g>
	<g id="studio">
		<path d="M0.91,115.53c0.14,0.16,0.29,0.32,0.47,0.48c0.17,0.16,0.37,0.31,0.59,0.44c0.22,0.13,0.46,0.23,0.73,0.31
			c0.71,0.21,1.79,0.17,2.4-0.33c0.74-0.6,0.75-1.88-0.07-2.42c-0.41-0.27-1.01-0.49-1.79-0.66c-0.42-0.09-0.81-0.21-1.16-0.37
			c-0.35-0.16-0.64-0.36-0.9-0.59c-0.25-0.24-0.45-0.51-0.59-0.82c-0.29-0.65-0.28-1.45,0-2.1c0.14-0.33,0.35-0.61,0.62-0.86
			c0.28-0.25,0.62-0.44,1.04-0.59c0.83-0.29,1.85-0.32,2.69-0.07c0.35,0.1,0.65,0.23,0.9,0.38c0.25,0.15,0.44,0.3,0.59,0.46
			c0.15,0.16,0.26,0.29,0.34,0.39l-0.95,0.87c-0.06-0.07-0.15-0.16-0.27-0.27c-0.12-0.11-0.27-0.22-0.45-0.33
			c-0.18-0.11-0.39-0.2-0.64-0.27c-0.55-0.15-1.1-0.15-1.65,0.01c-0.23,0.08-0.41,0.19-0.56,0.33c-0.15,0.13-0.26,0.28-0.33,0.45
			c-0.15,0.38-0.14,0.76,0.05,1.13c0.1,0.17,0.25,0.33,0.45,0.46c0.2,0.13,0.44,0.25,0.73,0.34c0.29,0.09,0.62,0.19,1,0.27
			c0.37,0.09,0.72,0.21,1.07,0.35c0.35,0.14,0.66,0.34,0.94,0.58c0.28,0.24,0.5,0.54,0.66,0.89c0.53,1.14,0.2,2.57-0.76,3.38
			c-0.31,0.26-0.68,0.46-1.1,0.61c-0.83,0.28-1.8,0.29-2.64,0.05c-0.38-0.11-0.73-0.25-1.04-0.41c-0.31-0.17-0.58-0.35-0.81-0.56
			c-0.23-0.2-0.42-0.4-0.57-0.6L0.91,115.53z"/>
		<path d="M17.89,109.29h-3.54v-1.24h8.49v1.24h-3.53v8.63h-1.42V109.29z"/>
		<path d="M30.12,108.05h1.42v5.78c0,0.44,0.04,0.85,0.12,1.22c0.08,0.37,0.21,0.69,0.41,0.96c0.19,0.27,0.45,0.47,0.77,0.61
			c0.71,0.32,1.72,0.32,2.43,0c0.32-0.14,0.58-0.35,0.77-0.61c0.19-0.27,0.33-0.59,0.41-0.96c0.08-0.37,0.12-0.78,0.12-1.22v-5.78
			h1.42v6.12c0,0.56-0.08,1.09-0.24,1.58c-0.16,0.49-0.4,0.91-0.72,1.27c-0.32,0.36-0.73,0.64-1.22,0.85c-1.05,0.44-2.44,0.44-3.5,0
			c-0.49-0.21-0.9-0.49-1.23-0.85c-0.33-0.36-0.57-0.78-0.73-1.27c-0.16-0.49-0.24-1.01-0.24-1.58V108.05z"/>
		<path d="M45.26,108.05h3.3c0.78,0,1.5,0.1,2.15,0.29c0.66,0.19,1.22,0.49,1.7,0.9c0.47,0.41,0.84,0.93,1.11,1.55
			c0.56,1.31,0.57,3.08,0,4.39c-0.27,0.62-0.64,1.13-1.11,1.54c-0.47,0.41-1.04,0.71-1.7,0.91c-0.66,0.2-1.38,0.3-2.16,0.3h-3.29
			V108.05z M48.52,116.65c1.23,0,2.19-0.3,2.88-0.91c1.44-1.28,1.4-4.15,0.04-5.47c-0.66-0.64-1.65-0.96-2.96-0.96h-1.79v7.33H48.52
			z"/>
		<path d="M61.21,108.05h1.42v9.88h-1.42V108.05z"/>
		<path d="M74.95,118.18c-0.71,0-1.37-0.14-1.98-0.41c-0.61-0.27-1.15-0.64-1.6-1.11c-0.45-0.47-0.81-1.02-1.07-1.65
			c-0.52-1.27-0.52-2.78,0-4.05c0.26-0.63,0.61-1.17,1.06-1.64c0.45-0.47,0.98-0.84,1.6-1.11c1.24-0.54,2.75-0.54,3.98,0
			c0.62,0.27,1.15,0.64,1.61,1.11c0.45,0.47,0.81,1.02,1.07,1.64c0.52,1.27,0.51,2.78,0,4.05c-0.5,1.23-1.46,2.23-2.67,2.76
			C76.32,118.04,75.66,118.18,74.95,118.18z M74.95,116.84c0.54,0,1.03-0.1,1.47-0.31c0.88-0.41,1.52-1.17,1.84-2.08
			c0.34-0.95,0.34-2.04,0-2.99c-0.32-0.91-0.96-1.67-1.84-2.07c-0.9-0.41-2.04-0.42-2.94,0c-0.43,0.2-0.81,0.48-1.12,0.84
			c-0.31,0.36-0.55,0.77-0.72,1.24c-0.34,0.95-0.34,2.04,0,2.99c0.17,0.47,0.41,0.88,0.72,1.24c0.31,0.36,0.68,0.64,1.12,0.84
			C73.92,116.74,74.41,116.84,74.95,116.84z"/>
	</g>
</g>
</svg>
